<?xml version="1.0" standalone="no"?><!DOCTYPE svg PUBLIC "-//W3C//DTD SVG 1.1//EN" "http://www.w3.org/Graphics/SVG/1.1/DTD/svg11.dtd"><svg t="1505806374939" class="icon" style="" viewBox="0 0 1024 1024" version="1.1" xmlns="http://www.w3.org/2000/svg" p-id="2367" xmlns:xlink="http://www.w3.org/1999/xlink" width="80" height="80"><defs><style type="text/css"></style></defs><path d="M234.252 240.468c-27.037 0-48.948 21.791-48.948 48.659s21.911 48.652 48.948 48.652c27.037 0 48.948-21.786 48.948-48.653 0-26.867-21.911-48.659-48.948-48.659zM839.949 237.675h-481.226c-11.145 0-20.152 8.972-20.152 20.032v55.467c0 11.067 9.007 20.032 20.152 20.032h481.226c11.13 0 20.152-8.965 20.152-20.032v-55.467c0-11.060-9.023-20.032-20.152-20.032zM839.949 450h-481.226c-11.145 0-20.152 8.965-20.152 20.039v55.468c0 11.060 9.007 20.032 20.152 20.032h481.226c11.13 0 20.152-8.972 20.152-20.032v-55.468c0-11.075-9.023-20.039-20.152-20.039zM839.949 662.332h-481.226c-11.145 0-20.152 8.964-20.152 20.025v55.468c0 11.059 9.007 20.038 20.152 20.038h481.226c11.13 0 20.152-8.979 20.152-20.038v-55.468c0-11.060-9.023-20.025-20.152-20.025zM234.252 452.792c-27.037 0-48.948 21.785-48.948 48.66 0 26.868 21.911 48.653 48.948 48.653 27.037 0 48.948-21.785 48.948-48.653 0-26.874-21.911-48.66-48.948-48.66zM234.252 665.126c-27.037 0-48.948 21.785-48.948 48.652 0 26.868 21.911 48.652 48.948 48.652 27.037 0 48.948-21.785 48.948-48.653 0-26.867-21.911-48.652-48.948-48.652z" p-id="2368"></path></svg>